# This file uses centimeters as units for non-parametric coordinates.

mtllib DisplayTable.mtl
g default
v 49.995052 106.333527 56.259907
v -49.995052 106.333527 56.259907
v 49.995052 125.083527 56.259907
v -49.995052 125.083527 56.259907
v -56.254948 106.333527 49.999989
v -56.254948 106.333527 -50.000011
v -56.254948 125.083527 49.999989
v -56.254948 125.083527 -50.000011
v -49.995052 106.333527 -56.259907
v 49.995052 106.333527 -56.259907
v -49.995052 125.083527 -56.259907
v 49.995052 125.083527 -56.259907
v 56.254948 106.333527 -50.000011
v 56.254948 106.333527 49.999989
v 56.254948 125.083527 -50.000011
v 56.254948 125.083527 49.999989
v 49.995052 125.083527 49.999989
v -49.995052 125.083527 49.999989
v 49.995052 125.083527 -50.000011
v -49.995052 125.083527 -50.000011
v 56.245052 0.073612 -56.250011
v -56.245052 0.073612 -56.250011
v 56.245052 0.073612 56.249989
v -56.245052 0.073612 56.249989
v 49.995052 106.333527 49.999989
v -49.995052 106.333527 49.999989
v 56.254948 125.083527 56.259907
v 56.254948 106.333527 56.259907
v -56.254948 106.333527 56.259907
v -56.254948 125.083527 56.259907
v -49.995052 106.333527 -50.000011
v 49.995052 106.333527 -50.000011
v -56.254948 125.083527 -56.259907
v -56.254948 106.333527 -56.259907
v 56.254948 106.333527 -56.259907
v 56.254948 125.083527 -56.259907
v 49.995052 18.823612 -50.000011
v -49.995052 18.823612 -50.000011
v 49.995052 18.823612 49.999989
v -49.995052 18.823612 49.999989
v 56.245052 12.573612 -56.250011
v -56.245052 12.573612 -56.250011
v 56.245052 12.573612 56.249989
v -56.245052 12.573612 56.249989
vt 0.970662 0.547165
vt 0.668851 0.547165
vt 0.668851 0.490570
vt 0.970662 0.490570
vt 0.339021 0.625886
vt 0.037180 0.625886
vt 0.037180 0.569291
vt 0.339021 0.569291
vt 0.697556 0.626732
vt 0.395745 0.626732
vt 0.395745 0.570136
vt 0.697556 0.570136
vt 0.967095 0.472062
vt 0.967117 0.415467
vt 0.025779 0.665364
vt 0.327591 0.665364
vt 0.327591 0.967205
vt 0.025779 0.967205
vt 0.690031 0.988816
vt 0.388220 0.988816
vt 0.388220 0.969921
vt 0.690031 0.969921
vt 0.646359 0.471940
vt 0.646380 0.415345
vt 0.357916 0.569291
vt 0.357916 0.625886
vt 0.327591 0.986100
vt 0.025779 0.986100
vt 0.388220 0.649184
vt 0.690031 0.649184
vt 0.690031 0.668079
vt 0.388220 0.668079
vt 0.018285 0.625886
vt 0.018285 0.569291
vt 0.986012 0.415474
vt 0.985990 0.472069
vt 0.025779 0.646469
vt 0.327591 0.646469
vt 0.346486 0.665364
vt 0.346486 0.967205
vt 0.346486 0.646469
vt 0.369325 0.668079
vt 0.369325 0.649184
vt 0.716451 0.570136
vt 0.716451 0.626732
vt 0.369325 0.969921
vt 0.369325 0.988816
vt 0.346486 0.986100
vt 0.649956 0.547165
vt 0.649956 0.490570
vt 0.708926 0.668079
vt 0.708926 0.969921
vt 0.708926 0.649184
vt 0.006885 0.986100
vt 0.006885 0.967205
vt 0.006885 0.665364
vt 0.708926 0.988816
vt 0.989558 0.490570
vt 0.989558 0.547165
vt 0.006885 0.646469
vt 0.376850 0.626732
vt 0.376850 0.570136
vt 0.019027 0.281906
vt 0.320838 0.281906
vt 0.318105 0.006832
vt 0.619947 0.006832
vt 0.016294 0.006832
vt 0.628584 0.216099
vt 0.968126 0.215304
vt 0.949323 0.242028
vt 0.647512 0.242734
vt 0.636271 0.055180
vt 0.975843 0.055323
vt 0.956966 0.081994
vt 0.655125 0.081867
vt 0.634723 0.135938
vt 0.974293 0.137183
vt 0.955331 0.163792
vt 0.653490 0.162686
vt 0.643608 0.307941
vt 0.983149 0.308751
vt 0.964220 0.335385
vt 0.662410 0.334666
vt 0.628496 0.178369
vt 0.636286 0.017450
vt 0.975859 0.017593
vt 0.634861 0.098208
vt 0.974431 0.099452
vt 0.983239 0.271021
vt 0.665254 0.471947
vt 0.665275 0.415352
vt 0.320838 0.546047
vt 0.019027 0.546047
vt 0.619947 0.270974
vt 0.318105 0.270974
vt 0.622680 0.281906
vt 0.622680 0.546047
vt 0.016294 0.270974
vt 0.968037 0.177574
vt 0.643698 0.270211
vn 0.000000 0.000000 1.000000
vn 0.000000 0.000000 1.000000
vn 0.000000 0.000000 1.000000
vn 0.000000 0.000000 1.000000
vn -1.000000 0.000000 0.000000
vn -1.000000 0.000000 0.000000
vn -1.000000 0.000000 0.000000
vn -1.000000 0.000000 0.000000
vn 0.000000 0.000000 -1.000000
vn 0.000000 0.000000 -1.000000
vn 0.000000 0.000000 -1.000000
vn 0.000000 0.000000 -1.000000
vn 1.000000 0.000000 0.000000
vn 1.000000 0.000000 0.000000
vn 1.000000 0.000000 0.000000
vn 1.000000 0.000000 0.000000
vn 0.000000 1.000000 0.000000
vn 0.000000 1.000000 0.000000
vn 0.000000 1.000000 0.000000
vn 0.000000 1.000000 0.000000
vn 0.000000 -1.000000 0.000000
vn 0.000000 -1.000000 0.000000
vn 0.000000 -1.000000 0.000000
vn 0.000000 -1.000000 0.000000
vn 1.000000 0.000000 0.000000
vn 1.000000 0.000000 0.000000
vn 1.000000 0.000000 0.000000
vn 1.000000 0.000000 0.000000
vn -1.000000 0.000000 0.000000
vn -1.000000 0.000000 0.000000
vn -1.000000 0.000000 0.000000
vn -1.000000 0.000000 0.000000
vn 0.000000 1.000000 0.000000
vn 0.000000 1.000000 0.000000
vn 0.000000 1.000000 0.000000
vn 0.000000 1.000000 0.000000
vn 0.000000 -1.000000 0.000000
vn 0.000000 -1.000000 0.000000
vn 0.000000 -1.000000 0.000000
vn 0.000000 -1.000000 0.000000
vn -1.000000 0.000000 0.000000
vn -1.000000 0.000000 0.000000
vn -1.000000 0.000000 0.000000
vn -1.000000 0.000000 0.000000
vn 1.000000 0.000000 0.000000
vn 1.000000 0.000000 0.000000
vn 1.000000 0.000000 0.000000
vn 1.000000 0.000000 0.000000
vn 0.000000 1.000000 0.000000
vn 0.000000 1.000000 0.000000
vn 0.000000 1.000000 0.000000
vn 0.000000 1.000000 0.000000
vn 0.000000 1.000000 0.000000
vn 0.000000 1.000000 0.000000
vn 0.000000 1.000000 0.000000
vn 0.000000 1.000000 0.000000
vn 0.000000 1.000000 0.000000
vn 0.000000 1.000000 0.000000
vn 0.000000 1.000000 0.000000
vn 0.000000 1.000000 0.000000
vn 0.000000 -1.000000 0.000000
vn 0.000000 -1.000000 0.000000
vn 0.000000 -1.000000 0.000000
vn 0.000000 -1.000000 0.000000
vn 0.000000 0.000000 -1.000000
vn 0.000000 0.000000 -1.000000
vn 0.000000 0.000000 -1.000000
vn 0.000000 0.000000 -1.000000
vn 0.000000 -1.000000 0.000000
vn 0.000000 -1.000000 0.000000
vn 0.000000 -1.000000 0.000000
vn 0.000000 -1.000000 0.000000
vn 0.000000 -1.000000 0.000000
vn 0.000000 -1.000000 0.000000
vn 0.000000 -1.000000 0.000000
vn 0.000000 -1.000000 0.000000
vn 0.000000 1.000000 0.000000
vn 0.000000 1.000000 0.000000
vn 0.000000 1.000000 0.000000
vn 0.000000 1.000000 0.000000
vn 0.000000 0.000000 1.000000
vn 0.000000 0.000000 1.000000
vn 0.000000 0.000000 1.000000
vn 0.000000 0.000000 1.000000
vn 0.000000 -1.000000 0.000000
vn 0.000000 -1.000000 0.000000
vn 0.000000 -1.000000 0.000000
vn 0.000000 -1.000000 0.000000
vn 0.000000 -1.000000 0.000000
vn 0.000000 -1.000000 0.000000
vn 0.000000 -1.000000 0.000000
vn 0.000000 -1.000000 0.000000
vn 0.000000 1.000000 0.000000
vn 0.000000 1.000000 0.000000
vn 0.000000 1.000000 0.000000
vn 0.000000 1.000000 0.000000
vn 0.000000 1.000000 0.000000
vn 0.000000 1.000000 0.000000
vn 0.000000 1.000000 0.000000
vn 0.000000 1.000000 0.000000
vn 0.000000 -1.000000 0.000000
vn 0.000000 -1.000000 0.000000
vn 0.000000 -1.000000 0.000000
vn 0.000000 -1.000000 0.000000
vn 0.000000 0.000000 1.000000
vn 0.000000 0.000000 1.000000
vn 0.000000 0.000000 1.000000
vn 0.000000 0.000000 1.000000
vn 0.000000 1.000000 0.000000
vn 0.000000 1.000000 0.000000
vn 0.000000 1.000000 0.000000
vn 0.000000 1.000000 0.000000
vn 0.000000 0.000000 -1.000000
vn 0.000000 0.000000 -1.000000
vn 0.000000 0.000000 -1.000000
vn 0.000000 0.000000 -1.000000
vn 0.000000 0.000000 -1.000000
vn 0.000000 0.000000 -1.000000
vn 0.000000 0.000000 -1.000000
vn 0.000000 0.000000 -1.000000
vn 1.000000 0.000000 0.000000
vn 1.000000 0.000000 0.000000
vn 1.000000 0.000000 0.000000
vn 1.000000 0.000000 0.000000
vn -1.000000 0.000000 0.000000
vn -1.000000 0.000000 0.000000
vn -1.000000 0.000000 0.000000
vn -1.000000 0.000000 0.000000
vn 0.000000 0.000000 1.000000
vn 0.000000 0.000000 1.000000
vn 0.000000 0.000000 1.000000
vn 0.000000 0.000000 1.000000
vn 0.000000 0.707107 -0.707107
vn 0.000000 0.707107 -0.707107
vn 0.000000 0.707107 -0.707107
vn 0.000000 0.707107 -0.707107
vn 0.707107 0.707107 0.000000
vn 0.707107 0.707107 0.000000
vn 0.707107 0.707107 0.000000
vn 0.707107 0.707107 0.000000
vn -0.707107 0.707107 0.000000
vn -0.707107 0.707107 0.000000
vn -0.707107 0.707107 0.000000
vn -0.707107 0.707107 0.000000
vn 0.000000 0.707107 0.707107
vn 0.000000 0.707107 0.707107
vn 0.000000 0.707107 0.707107
vn 0.000000 0.707107 0.707107
vn 0.000000 0.000000 -1.000000
vn 0.000000 0.000000 -1.000000
vn 0.000000 0.000000 -1.000000
vn 0.000000 0.000000 -1.000000
vn 1.000000 0.000000 0.000000
vn 1.000000 0.000000 0.000000
vn 1.000000 0.000000 0.000000
vn 1.000000 0.000000 0.000000
vn -1.000000 0.000000 0.000000
vn -1.000000 0.000000 0.000000
vn -1.000000 0.000000 0.000000
vn -1.000000 0.000000 0.000000
vn 0.000000 0.000000 1.000000
vn 0.000000 0.000000 1.000000
vn 0.000000 0.000000 1.000000
vn 0.000000 0.000000 1.000000
s off
g Cube_309_
usemtl Cube_309_SG
f 3/1/1 4/2/2 2/3/3 1/4/4
f 7/5/5 8/6/6 6/7/7 5/8/8
f 11/9/9 12/10/10 10/11/11 9/12/12
f 15/13/13 16/90/14 14/91/15 13/14/16
f 19/15/17 20/16/18 18/17/19 17/18/20
f 1/19/21 2/20/22 26/21/23 25/22/24
f 27/23/25 28/24/26 14/91/27 16/90/28
f 29/25/29 30/26/30 7/5/31 5/8/32
f 4/27/33 3/28/34 17/18/35 18/17/36
f 9/29/37 10/30/38 32/31/39 31/32/40
f 33/33/41 34/34/42 6/7/43 8/6/44
f 35/35/45 36/36/46 15/13/47 13/14/48
f 12/37/49 11/38/50 20/16/51 19/15/52
f 8/39/53 7/40/54 18/17/55 20/16/56
f 33/41/57 8/39/58 20/16/59 11/38/60
f 6/42/61 34/43/62 9/29/63 31/32/64
f 34/44/65 33/45/66 11/9/67 9/12/68
f 5/46/69 6/42/70 31/32/71 26/21/72
f 29/47/73 5/46/74 26/21/75 2/20/76
f 7/40/77 30/48/78 4/27/79 18/17/80
f 30/49/81 29/50/82 2/3/83 4/2/84
f 13/51/85 14/52/86 25/22/87 32/31/88
f 35/53/89 13/51/90 32/31/91 10/30/92
f 27/54/93 16/55/94 17/18/95 3/28/96
f 16/55/97 15/56/98 19/15/99 17/18/100
f 14/52/101 28/57/102 1/19/103 25/22/104
f 28/58/105 27/59/106 3/1/107 1/4/108
f 15/56/109 36/60/110 12/37/111 19/15/112
f 36/61/113 35/62/114 10/11/115 12/10/116
f 37/63/117 38/64/118 31/92/119 32/93/120
f 39/65/121 37/66/122 32/94/123 25/95/124
f 38/64/125 40/96/126 26/97/127 31/92/128
f 40/67/129 39/65/130 25/95/131 26/98/132
f 41/68/133 42/69/134 38/70/135 37/71/136
f 43/72/137 41/73/138 37/74/139 39/75/140
f 42/76/141 44/77/142 40/78/143 38/79/144
f 44/80/145 43/81/146 39/82/147 40/83/148
f 21/84/149 22/99/150 42/69/151 41/68/152
f 23/85/153 21/86/154 41/73/155 43/72/156
f 22/87/157 24/88/158 44/77/159 42/76/160
f 24/100/161 23/89/162 43/81/163 44/80/164
